<svg width="345" height="142" viewBox="0 0 345 142" fill="none" xmlns="http://www.w3.org/2000/svg">
<path d="M27.808 56.352C26.56 54.72 25.264 53.904 23.92 53.904C20.08 53.904 15.424 58.128 9.952 66.576C7.168 70.8 4.768 76.32 2.752 83.136C2.656 83.904 2.224 84.288 1.456 84.288C0.592 84.288 0.16 83.904 0.16 83.136L2.32 67.872C3.28 60.192 3.808 55.392 3.904 53.472C4 51.456 5.296 50.064 7.792 49.296C8.56 49.104 9.328 49.008 10.096 49.008C10.96 49.008 11.44 49.44 11.536 50.304C11.536 50.592 11.488 50.928 11.392 51.312C11.296 51.6 10.576 54.144 9.232 58.944C7.984 63.648 7.168 66.432 6.784 67.296C9.088 63.264 12.016 59.376 15.568 55.632C19.12 51.792 21.856 49.872 23.776 49.872C23.872 49.872 23.92 49.872 23.92 49.872C26.512 49.872 28.192 51.456 28.96 54.624C29.152 55.392 29.248 56.064 29.248 56.64C29.248 57.12 29.104 57.36 28.816 57.36C28.528 57.456 28.192 57.12 27.808 56.352ZM39.0051 63.552C36.2211 67.296 34.2531 70.56 33.1011 73.344C31.9491 76.128 31.3731 78.192 31.3731 79.536C31.3731 80.88 31.8051 81.552 32.6691 81.552C35.2611 81.552 40.4931 75.792 48.3651 64.272C51.4371 60.336 52.9731 60.384 52.9731 64.416C52.7811 66.912 52.6851 69.024 52.6851 70.752C52.6851 78.048 54.2211 81.696 57.2931 81.696C60.5571 81.696 64.5411 79.056 69.2451 73.776C69.5331 73.488 69.8691 73.68 70.2531 74.352C69.9651 75.024 68.9571 76.224 67.2291 77.952C65.5971 79.584 63.5331 81.072 61.0371 82.416C58.5411 83.76 56.6211 84.432 55.2771 84.432C54.0291 84.432 53.0211 84.288 52.2531 84C48.7011 82.752 46.9251 77.856 46.9251 69.312C43.0851 75.36 40.3011 79.2 38.5731 80.832C35.8851 83.328 33.6771 84.576 31.9491 84.576C31.8531 84.576 31.7091 84.576 31.5171 84.576C28.3491 84.096 26.7651 81.984 26.7651 78.24C26.7651 74.4 27.9651 70.176 30.3651 65.568C32.8611 60.864 36.1251 56.64 40.1571 52.896C44.1891 49.152 48.2211 47.28 52.2531 47.28C54.1731 47.28 56.0451 47.76 57.8691 48.72C59.5011 49.68 60.3171 51.216 60.3171 53.328C60.3171 55.344 59.4051 56.496 57.5811 56.784C58.2531 55.632 58.5891 54.576 58.5891 53.616C58.5891 52.56 58.1091 51.792 57.1491 51.312C56.1891 50.832 55.3251 50.592 54.5571 50.592C50.4291 50.592 45.2451 54.912 39.0051 63.552ZM74.077 57.936C71.869 65.808 70.765 71.472 70.765 74.928C70.765 78.384 71.197 80.448 72.061 81.12C73.021 81.792 74.173 82.128 75.517 82.128C76.861 82.128 79.117 81.408 82.285 79.968C85.453 78.528 87.901 76.704 89.629 74.496C91.357 72.288 92.173 71.76 92.077 72.912C91.981 73.872 91.693 74.736 91.213 75.504C89.485 77.712 86.653 79.824 82.717 81.84C78.781 83.76 75.661 84.72 73.357 84.72C72.781 84.72 72.253 84.672 71.773 84.576C68.029 83.712 66.157 80.304 66.157 74.352C66.157 71.568 66.589 68.16 67.453 64.128C66.493 64.32 66.013 64.08 66.013 63.408C66.013 62.544 66.877 61.2 68.605 59.376C74.365 35.376 81.949 19.44 91.357 11.568C93.469 9.84 95.389 8.976 97.117 8.976C100.861 8.976 102.733 10.704 102.733 14.16C102.541 21.84 98.989 29.952 92.077 38.496C88.525 42.816 85.645 46.128 83.437 48.432C81.325 50.736 78.205 53.904 74.077 57.936ZM100.573 14.736C100.573 12.336 99.949 11.136 98.701 11.136C94.765 11.136 89.485 18.432 82.861 33.024C79.021 41.76 76.237 49.008 74.509 54.768C79.789 49.776 85.453 43.152 91.501 34.896C97.549 26.64 100.573 19.92 100.573 14.736ZM100.863 84.576C98.6553 84.576 97.5513 83.328 97.5513 80.832C97.5513 77.568 99.6153 74.304 103.743 71.04C105.183 69.888 106.527 68.832 107.775 67.872L109.503 66.288C109.503 64.272 108.639 61.44 106.911 57.792C105.183 54.144 103.647 52.32 102.303 52.32C102.207 52.32 100.911 55.824 98.4153 62.832C90.9273 84.048 86.7993 98.256 86.0312 105.456C86.0312 105.744 85.9832 106.32 85.8872 107.184C85.6952 108.048 85.5512 108.768 85.4552 109.344C85.3592 110.016 85.3112 110.784 85.3112 111.648C85.2152 112.512 85.2152 113.28 85.3112 113.952C85.4072 114.624 85.5992 115.296 85.8872 115.968C86.2713 117.312 87.0873 118.08 88.3353 118.272C89.6793 118.464 90.3513 118.752 90.3513 119.136C90.4473 119.424 90.2073 119.568 89.6313 119.568C85.8872 119.568 83.2952 117.696 81.8552 113.952C80.9912 112.032 80.5592 110.208 80.5592 108.48C80.5592 106.848 80.8952 104.592 81.5672 101.712C82.1432 98.832 83.8232 92.976 86.6073 84.144C89.3912 75.312 91.9353 67.584 94.2393 60.96L97.8393 51.168C97.7433 51.168 97.5513 51.12 97.2633 51.024C96.9753 50.832 96.7353 50.688 96.5433 50.592C96.0633 50.496 95.9193 50.16 96.1113 49.584C96.3033 48.912 96.6873 48.288 97.2633 47.712C98.7033 46.464 99.4233 46.032 99.4233 46.416C99.7113 45.84 99.9033 45.264 99.9993 44.688C100.191 44.112 100.383 43.488 100.575 42.816C101.343 40.8 101.727 39.264 101.727 38.208C101.727 37.056 101.631 36.336 101.439 36.048C101.247 35.664 101.103 35.424 101.007 35.328C100.911 35.232 100.719 35.088 100.431 34.896C100.239 34.704 100.095 34.56 99.9993 34.464C99.3273 34.176 99.2313 33.984 99.7113 33.888C100.191 33.696 100.527 33.6 100.719 33.6C101.007 33.6 101.679 33.744 102.735 34.032C103.791 34.224 104.799 34.848 105.759 35.904C106.719 36.96 107.103 37.872 106.911 38.64L104.175 47.856C110.031 51.6 113.439 56.88 114.399 63.696C114.399 63.984 115.263 63.6 116.991 62.544C120.543 60.432 122.319 59.712 122.319 60.384C122.223 61.056 121.647 61.776 120.591 62.544C116.559 64.944 114.543 66.192 114.543 66.288C114.351 71.472 113.199 75.552 111.087 78.528C108.975 81.504 106.287 83.424 103.023 84.288C102.159 84.48 101.439 84.576 100.863 84.576ZM109.503 68.304C103.551 73.392 100.575 77.232 100.575 79.824C100.575 80.976 101.247 81.552 102.591 81.552C104.511 81.552 106.191 80.256 107.631 77.664C108.975 74.976 109.647 72.24 109.647 69.456C109.647 68.976 109.599 68.592 109.503 68.304ZM142.132 71.328C142.132 77.376 143.188 80.4 145.3 80.4C148.18 80.4 152.116 77.28 157.108 71.04C158.068 69.888 158.596 69.264 158.692 69.168C158.884 68.976 159.076 69.168 159.268 69.744L159.412 70.032C158.644 71.952 156.292 74.832 152.356 78.672C148.516 82.512 145.252 84.432 142.564 84.432C141.604 84.432 140.692 84.192 139.828 83.712C137.428 82.56 136.228 78.336 136.228 71.04C136.228 69.888 136.324 68.304 136.516 66.288C136.708 64.176 136.9 63.024 137.092 62.832C137.092 62.736 136.948 62.832 136.66 63.12C136.468 63.312 136.084 63.744 135.508 64.416C135.028 64.992 134.5 65.616 133.924 66.288C133.348 66.96 132.676 67.824 131.908 68.88C131.14 69.936 130.42 70.848 129.748 71.616C128.02 73.536 126.676 75.264 125.716 76.8C125.428 80.256 124.18 82.656 121.972 84C121.492 84.288 121.108 84.432 120.82 84.432C120.628 84.432 120.532 83.568 120.532 81.84C120.532 80.016 121.156 75.408 122.404 68.016C123.652 60.624 124.804 55.536 125.86 52.752C122.884 53.52 121.3 54.72 121.108 56.352C120.916 57.504 120.58 58.08 120.1 58.08C119.716 57.984 119.524 57.552 119.524 56.784C119.524 53.808 121.972 51.6 126.868 50.16C129.364 42 133.012 33.936 137.812 25.968C142.612 18 147.94 11.808 153.796 7.392C159.652 2.784 165.604 0.479994 171.652 0.479994C174.244 0.479994 176.788 1.008 179.284 2.064C183.028 3.696 185.668 6.43199 187.204 10.272C187.876 12 188.212 13.776 188.212 15.6C188.212 21.168 185.476 26.016 180.004 30.144C176.164 33.12 171.028 36.096 164.596 39.072C158.164 41.952 152.884 44.112 148.756 45.552C144.724 46.896 138.772 48.816 130.9 51.312C129.364 55.44 127.732 63.12 126.004 74.352C127.348 72.336 129.46 69.504 132.34 65.856C135.22 62.112 137.092 59.664 137.956 58.512C138.436 56.4 139.54 54.72 141.268 53.472C143.092 52.128 144.004 52.368 144.004 54.192C144.004 54.672 143.668 56.88 142.996 60.816C142.42 64.752 142.132 68.256 142.132 71.328ZM185.908 11.856C184.084 7.056 179.524 4.656 172.228 4.656C165.412 4.656 158.74 7.008 152.212 11.712C149.332 13.728 146.116 17.376 142.564 22.656C140.548 25.728 138.82 29.088 137.38 32.736C136.036 36.288 134.788 39.648 133.636 42.816C132.58 45.888 131.86 47.904 131.476 48.864C137.908 47.04 146.212 43.776 156.388 39.072C166.66 34.272 174.244 30 179.14 26.256C184.036 22.416 186.484 18.672 186.484 15.024C186.484 13.968 186.292 12.912 185.908 11.856ZM166.783 78.24C168.127 78.24 169.231 78.672 170.095 79.536C170.959 80.4 171.391 81.456 171.391 82.704C171.391 83.856 170.959 84.816 170.095 85.584C169.231 86.448 168.127 86.88 166.783 86.88C165.535 86.88 164.479 86.448 163.615 85.584C162.655 84.912 162.175 83.952 162.175 82.704C162.175 81.456 162.607 80.4 163.471 79.536C164.431 78.672 165.535 78.24 166.783 78.24ZM188.405 57.936C186.197 65.808 185.093 71.472 185.093 74.928C185.093 78.384 185.525 80.448 186.389 81.12C187.349 81.792 188.501 82.128 189.845 82.128C191.189 82.128 193.445 81.408 196.613 79.968C199.781 78.528 202.229 76.704 203.957 74.496C205.685 72.288 206.501 71.76 206.405 72.912C206.309 73.872 206.021 74.736 205.541 75.504C203.813 77.712 200.981 79.824 197.045 81.84C193.109 83.76 189.989 84.72 187.685 84.72C187.109 84.72 186.581 84.672 186.101 84.576C182.357 83.712 180.485 80.304 180.485 74.352C180.485 71.568 180.917 68.16 181.781 64.128C180.821 64.32 180.341 64.08 180.341 63.408C180.341 62.544 181.205 61.2 182.933 59.376C188.693 35.376 196.277 19.44 205.685 11.568C207.797 9.84 209.717 8.976 211.445 8.976C215.189 8.976 217.061 10.704 217.061 14.16C216.869 21.84 213.317 29.952 206.405 38.496C202.853 42.816 199.973 46.128 197.765 48.432C195.653 50.736 192.533 53.904 188.405 57.936ZM214.901 14.736C214.901 12.336 214.277 11.136 213.029 11.136C209.093 11.136 203.813 18.432 197.189 33.024C193.349 41.76 190.565 49.008 188.837 54.768C194.117 49.776 199.781 43.152 205.829 34.896C211.877 26.64 214.901 19.92 214.901 14.736ZM215.911 63.552C213.127 67.296 211.159 70.56 210.007 73.344C208.855 76.128 208.279 78.192 208.279 79.536C208.279 80.88 208.711 81.552 209.575 81.552C212.167 81.552 217.399 75.792 225.271 64.272C228.343 60.336 229.879 60.384 229.879 64.416C229.687 66.912 229.591 69.024 229.591 70.752C229.591 78.048 231.127 81.696 234.199 81.696C237.463 81.696 241.447 79.056 246.151 73.776C246.439 73.488 246.775 73.68 247.159 74.352C246.871 75.024 245.863 76.224 244.135 77.952C242.503 79.584 240.439 81.072 237.943 82.416C235.447 83.76 233.527 84.432 232.183 84.432C230.935 84.432 229.927 84.288 229.159 84C225.607 82.752 223.831 77.856 223.831 69.312C219.991 75.36 217.207 79.2 215.479 80.832C212.791 83.328 210.583 84.576 208.855 84.576C208.759 84.576 208.615 84.576 208.423 84.576C205.255 84.096 203.671 81.984 203.671 78.24C203.671 74.4 204.871 70.176 207.271 65.568C209.767 60.864 213.031 56.64 217.063 52.896C221.095 49.152 225.127 47.28 229.159 47.28C231.079 47.28 232.951 47.76 234.775 48.72C236.407 49.68 237.223 51.216 237.223 53.328C237.223 55.344 236.311 56.496 234.487 56.784C235.159 55.632 235.495 54.576 235.495 53.616C235.495 52.56 235.015 51.792 234.055 51.312C233.095 50.832 232.231 50.592 231.463 50.592C227.335 50.592 222.151 54.912 215.911 63.552ZM268.839 56.352C267.591 54.72 266.295 53.904 264.951 53.904C261.111 53.904 256.455 58.128 250.983 66.576C248.199 70.8 245.799 76.32 243.783 83.136C243.687 83.904 243.255 84.288 242.487 84.288C241.623 84.288 241.191 83.904 241.191 83.136L243.351 67.872C244.311 60.192 244.839 55.392 244.935 53.472C245.031 51.456 246.327 50.064 248.823 49.296C249.591 49.104 250.359 49.008 251.127 49.008C251.991 49.008 252.471 49.44 252.567 50.304C252.567 50.592 252.519 50.928 252.423 51.312C252.327 51.6 251.607 54.144 250.263 58.944C249.015 63.648 248.199 66.432 247.815 67.296C250.119 63.264 253.047 59.376 256.599 55.632C260.151 51.792 262.887 49.872 264.807 49.872C264.903 49.872 264.951 49.872 264.951 49.872C267.543 49.872 269.223 51.456 269.991 54.624C270.183 55.392 270.279 56.064 270.279 56.64C270.279 57.12 270.135 57.36 269.847 57.36C269.559 57.456 269.223 57.12 268.839 56.352ZM287.092 54.192C284.308 56.592 281.524 59.712 278.74 63.552C276.052 67.296 274.132 70.608 272.98 73.488C271.828 76.272 271.252 78.336 271.252 79.68C271.252 80.928 271.684 81.552 272.548 81.552C275.14 81.552 280.372 75.792 288.244 64.272C291.316 60.336 292.852 60.384 292.852 64.416C292.756 65.088 292.708 65.952 292.708 67.008C292.708 70.656 292.804 73.92 292.996 76.8C295.588 75.072 298.036 73.152 300.34 71.04C302.74 68.928 303.94 68.208 303.94 68.88C303.94 69.552 303.316 70.56 302.068 71.904C297.94 76.032 294.964 78.672 293.14 79.824C293.524 82.8 293.716 86.496 293.716 90.912C293.716 95.424 292.996 100.512 291.556 106.176C289.444 114.816 285.508 122.256 279.748 128.496C275.332 133.2 270.292 136.704 264.628 139.008C260.884 140.736 256.852 141.6 252.532 141.6C245.236 141.6 239.476 139.488 235.252 135.264C232.372 132.096 230.932 128.736 230.932 125.184C230.932 117.792 237.46 109.824 250.516 101.28C256.276 97.632 263.236 93.6 271.396 89.184C279.556 84.768 285.508 81.408 289.252 79.104C288.004 72.96 287.188 69.696 286.804 69.312C282.964 75.36 280.18 79.2 278.452 80.832C275.572 83.52 273.22 84.768 271.396 84.576C268.228 84.096 266.644 81.984 266.644 78.24C266.644 74.4 267.844 70.176 270.244 65.568C272.74 60.864 276.004 56.64 280.036 52.896C284.068 49.152 288.1 47.28 292.132 47.28C294.052 47.28 295.924 47.76 297.748 48.72C299.38 49.68 300.196 51.216 300.196 53.328C300.196 55.344 299.284 56.496 297.46 56.784C298.132 55.632 298.468 54.576 298.468 53.616C298.468 52.56 297.988 51.792 297.028 51.312C296.164 50.832 295.3 50.592 294.436 50.592C292.42 50.592 289.972 51.792 287.092 54.192ZM239.284 116.544C235.444 120.576 233.524 123.936 233.524 126.624C233.524 129.312 234.484 131.616 236.404 133.536C239.092 136.224 243.412 137.568 249.364 137.568C253.876 137.568 258.676 136.512 263.764 134.4C270.004 132 275.428 128.352 280.036 123.456C287.14 115.68 290.692 105.792 290.692 93.792C290.692 89.952 290.356 85.92 289.684 81.696C262.42 98.112 245.62 109.728 239.284 116.544ZM337.033 58.08L343.801 57.36C344.089 57.36 344.233 57.456 344.233 57.648C344.233 57.84 344.089 58.08 343.801 58.368L342.649 59.376C340.345 60.432 337.993 60.96 335.593 60.96C333.193 60.96 331.609 60.768 330.841 60.384C330.841 60.576 330.841 61.104 330.841 61.968C330.841 62.832 330.361 64.704 329.401 67.584C328.537 70.464 327.193 73.488 325.369 76.656C323.545 79.824 321.577 82.128 319.465 83.568C317.353 85.008 315.769 85.728 314.713 85.728C313.753 85.728 312.697 85.584 311.545 85.296C310.489 85.008 309.289 84 307.945 82.272C306.409 80.544 305.641 78.144 305.641 75.072C305.641 71.904 306.121 68.688 307.081 65.424C310.633 54.672 315.001 49.056 320.185 48.576C320.857 47.808 321.673 47.424 322.633 47.424C323.689 47.424 325.033 47.904 326.665 48.864C329.545 50.688 331.129 52.944 331.417 55.632C332.761 57.264 334.633 58.08 337.033 58.08ZM321.769 53.472C320.137 53.856 318.361 55.728 316.441 59.088C314.521 62.448 313.081 65.808 312.121 69.168C311.257 72.528 310.825 75.408 310.825 77.808C310.825 80.112 311.689 81.696 313.417 82.56C313.897 82.752 314.425 82.848 315.001 82.848C317.305 82.848 319.897 80.592 322.777 76.08C324.409 73.488 325.705 70.608 326.665 67.44C327.625 64.272 328.105 62.256 328.105 61.392C328.105 60.528 328.057 59.952 327.961 59.664C326.137 59.376 324.697 58.704 323.641 57.648C322.585 56.592 322.009 55.632 321.913 54.768L321.769 53.472Z" fill="white"/>
</svg>
